<?xml version="1.0" encoding="UTF-8" standalone="no"?>
<!DOCTYPE svg PUBLIC "-//W3C//DTD SVG 1.1//EN"
 "http://www.w3.org/Graphics/SVG/1.1/DTD/svg11.dtd">
<!-- Generated by graphviz version 2.43.0 (0)
 -->
<!-- Title: %3 Pages: 1 -->
<svg width="492pt" height="622pt"
 viewBox="0.00 0.00 492.00 622.00" xmlns="http://www.w3.org/2000/svg" xmlns:xlink="http://www.w3.org/1999/xlink">
<g id="graph0" class="graph" transform="scale(1 1) rotate(0) translate(4 618)">
<title>%3</title>
<polygon fill="white" stroke="transparent" points="-4,4 -4,-618 488,-618 488,4 -4,4"/>
<g id="clust1" class="cluster">
<title>clusterPropagatorSettings</title>
<polygon fill="none" stroke="black" stroke-dasharray="5,2" points="8,-8 8,-114 240,-114 240,-8 8,-8"/>
</g>
<g id="clust3" class="cluster">
<title>clusterNamedBodyMap</title>
<polygon fill="none" stroke="black" stroke-dasharray="5,2" points="8,-278 8,-438 240,-438 240,-278 8,-278"/>
</g>
<g id="clust6" class="cluster">
<title>clusterAccelerationSettings</title>
<polygon fill="none" stroke="black" stroke-dasharray="5,2" points="8,-164 8,-270 114,-270 114,-164 8,-164"/>
</g>
<g id="clust7" class="cluster">
<title>clusterIntegratorSettings</title>
<polygon fill="none" stroke="black" stroke-dasharray="5,2" points="134,-446 134,-606 240,-606 240,-446 134,-446"/>
</g>
<!-- DynamicsSimulator -->
<g id="node1" class="node">
<title>DynamicsSimulator</title>
<g id="a_node1"><a xlink:href="http://tudat.tudelft.nl/tutorials/tudatFeatures/propagationSetup/simulatorCreation.html#DynamicsSimulator" xlink:title="DynamicsSimulator" target="_top">
<polygon fill="lightgreen" stroke="lightgreen" points="484,-322 394,-322 394,-286 484,-286 484,-322"/>
<text text-anchor="middle" x="439" y="-302.1" font-family="Times" font-size="8.00">DynamicsSimulator</text>
</a>
</g>
</g>
<!-- DependentVariable(s)\nNumerical Solution -->
<g id="node5" class="node">
<title>DependentVariable(s)\nNumerical Solution</title>
<polygon fill="peachpuff" stroke="peachpuff" points="484,-376 394,-376 394,-340 484,-340 484,-376"/>
<text text-anchor="middle" x="439" y="-360.6" font-family="Times" font-size="8.00">DependentVariable(s)</text>
<text text-anchor="middle" x="439" y="-351.6" font-family="Times" font-size="8.00">Numerical Solution</text>
</g>
<!-- DynamicsSimulator&#45;&gt;DependentVariable(s)\nNumerical Solution -->
<g id="edge28" class="edge">
<title>DynamicsSimulator&#45;&gt;DependentVariable(s)\nNumerical Solution</title>
<path fill="none" stroke="black" d="M439,-322.28C439,-322.28 439,-329.74 439,-329.74"/>
<polygon fill="black" stroke="black" points="435.5,-329.74 439,-339.74 442.5,-329.74 435.5,-329.74"/>
</g>
<!-- Equations of Motion\nNumerical Solution -->
<g id="node6" class="node">
<title>Equations of Motion\nNumerical Solution</title>
<polygon fill="peachpuff" stroke="peachpuff" points="484,-268 394,-268 394,-232 484,-232 484,-268"/>
<text text-anchor="middle" x="439" y="-252.6" font-family="Times" font-size="8.00">Equations of Motion</text>
<text text-anchor="middle" x="439" y="-243.6" font-family="Times" font-size="8.00">Numerical Solution</text>
</g>
<!-- DynamicsSimulator&#45;&gt;Equations of Motion\nNumerical Solution -->
<g id="edge27" class="edge">
<title>DynamicsSimulator&#45;&gt;Equations of Motion\nNumerical Solution</title>
<path fill="none" stroke="black" d="M439,-285.72C439,-285.72 439,-278.26 439,-278.26"/>
<polygon fill="black" stroke="black" points="442.5,-278.26 439,-268.26 435.5,-278.26 442.5,-278.26"/>
</g>
<!-- IntegratorSettings -->
<g id="node2" class="node">
<title>IntegratorSettings</title>
<g id="a_node2"><a xlink:href="http://tudat.tudelft.nl/tutorials/tudatFeatures/propagationSetup/integratorSettings.html#IntegratorSettings" xlink:title="IntegratorSettings" target="_top">
<polygon fill="lightblue" stroke="lightblue" points="358,-490 268,-490 268,-454 358,-454 358,-490"/>
<text text-anchor="middle" x="313" y="-470.1" font-family="Times" font-size="8.00">IntegratorSettings</text>
</a>
</g>
</g>
<!-- IntegratorSettings&#45;&gt;DynamicsSimulator -->
<g id="edge3" class="edge">
<title>IntegratorSettings&#45;&gt;DynamicsSimulator</title>
<path fill="none" stroke="black" d="M358.19,-472C365.11,-472 370,-472 370,-472 370,-472 370,-313 370,-313 370,-313 383.75,-313 383.75,-313"/>
<polygon fill="black" stroke="black" points="383.75,-316.5 393.75,-313 383.75,-309.5 383.75,-316.5"/>
</g>
<!-- User&#45;defined \nbodies -->
<g id="node19" class="node">
<title>User&#45;defined \nbodies</title>
<polygon fill="none" stroke="black" stroke-dasharray="1,5" points="358,-430 268,-430 268,-394 358,-394 358,-430"/>
<text text-anchor="middle" x="313" y="-414.6" font-family="Times" font-size="8.00">User&#45;defined </text>
<text text-anchor="middle" x="313" y="-405.6" font-family="Times" font-size="8.00">bodies</text>
</g>
<!-- IntegratorSettings&#45;&gt;User&#45;defined \nbodies -->
<!-- NamedBodyMap -->
<g id="node3" class="node">
<title>NamedBodyMap</title>
<g id="a_node3"><a xlink:href="http://tudat.tudelft.nl/tutorials/tudatFeatures/environmentSetup/index.html#NamedBodyMap" xlink:title="NamedBodyMap" target="_top">
<polygon fill="lightblue" stroke="lightblue" points="358,-322 268,-322 268,-286 358,-286 358,-322"/>
<text text-anchor="middle" x="313" y="-302.1" font-family="Times" font-size="8.00">NamedBodyMap</text>
</a>
</g>
</g>
<!-- NamedBodyMap&#45;&gt;DynamicsSimulator -->
<g id="edge1" class="edge">
<title>NamedBodyMap&#45;&gt;DynamicsSimulator</title>
<path fill="none" stroke="black" d="M358.13,-304C358.13,-304 383.76,-304 383.76,-304"/>
<polygon fill="black" stroke="black" points="383.76,-307.5 393.76,-304 383.76,-300.5 383.76,-307.5"/>
</g>
<!-- PropagatorSettings -->
<g id="node4" class="node">
<title>PropagatorSettings</title>
<g id="a_node4"><a xlink:href="http://tudat.tudelft.nl/tutorials/tudatFeatures/propagationSetup/propagatorSettings.html#PropagatorSettings" xlink:title="PropagatorSettings" target="_top">
<polygon fill="lightblue" stroke="lightblue" points="358,-160 268,-160 268,-124 358,-124 358,-160"/>
<text text-anchor="middle" x="313" y="-140.1" font-family="Times" font-size="8.00">PropagatorSettings</text>
</a>
</g>
</g>
<!-- NamedBodyMap&#45;&gt;PropagatorSettings -->
<g id="edge4" class="edge">
<title>NamedBodyMap&#45;&gt;PropagatorSettings</title>
<path fill="none" stroke="black" d="M267.88,-304C257.79,-304 250,-304 250,-304 250,-304 250,-145.6 250,-145.6 250,-145.6 257.88,-145.6 257.88,-145.6"/>
<polygon fill="black" stroke="black" points="257.88,-149.1 267.88,-145.6 257.88,-142.1 257.88,-149.1"/>
</g>
<!-- AccelerationModel -->
<g id="node7" class="node">
<title>AccelerationModel</title>
<g id="a_node7"><a xlink:href="http://tudat.tudelft.nl/tutorials/tudatFeatures/accelerationSetup/frameworkAcceleration.html#SelectedAccelerationMap" xlink:title="AccelerationModel" target="_top">
<polygon fill="lightgrey" stroke="lightgrey" points="358,-214 268,-214 268,-178 358,-178 358,-214"/>
<text text-anchor="middle" x="313" y="-194.1" font-family="Times" font-size="8.00">AccelerationModel</text>
</a>
</g>
</g>
<!-- NamedBodyMap&#45;&gt;AccelerationModel -->
<g id="edge23" class="edge">
<title>NamedBodyMap&#45;&gt;AccelerationModel</title>
<path fill="none" stroke="black" d="M328,-285.68C328,-285.68 328,-224.05 328,-224.05"/>
<polygon fill="black" stroke="black" points="331.5,-224.05 328,-214.05 324.5,-224.05 331.5,-224.05"/>
</g>
<!-- PropagatorSettings&#45;&gt;DynamicsSimulator -->
<g id="edge2" class="edge">
<title>PropagatorSettings&#45;&gt;DynamicsSimulator</title>
<path fill="none" stroke="black" d="M358.25,-142C371.26,-142 382,-142 382,-142 382,-142 382,-295 382,-295 382,-295 383.81,-295 383.81,-295"/>
<polygon fill="black" stroke="black" points="383.81,-298.5 393.81,-295 383.81,-291.5 383.81,-298.5"/>
</g>
<!-- AccelerationModel&#45;&gt;PropagatorSettings -->
<g id="edge5" class="edge">
<title>AccelerationModel&#45;&gt;PropagatorSettings</title>
<path fill="none" stroke="black" d="M313,-177.72C313,-177.72 313,-170.26 313,-170.26"/>
<polygon fill="black" stroke="black" points="316.5,-170.26 313,-160.26 309.5,-170.26 316.5,-170.26"/>
</g>
<!-- BodySettings -->
<g id="node8" class="node">
<title>BodySettings</title>
<g id="a_node8"><a xlink:href="http://tudat.tudelft.nl/tutorials/tudatFeatures/environmentSetup/index.html#BodySettings" xlink:title="BodySettings" target="_top">
<polygon fill="lightgrey" stroke="lightgrey" points="232,-376 142,-376 142,-340 232,-340 232,-376"/>
<text text-anchor="middle" x="187" y="-356.1" font-family="Times" font-size="8.00">BodySettings</text>
</a>
</g>
</g>
<!-- BodySettings&#45;&gt;NamedBodyMap -->
<g id="edge15" class="edge">
<title>BodySettings&#45;&gt;NamedBodyMap</title>
<path fill="none" stroke="black" d="M232.15,-358C262.88,-358 298,-358 298,-358 298,-358 298,-332.28 298,-332.28"/>
<polygon fill="black" stroke="black" points="301.5,-332.28 298,-322.28 294.5,-332.28 301.5,-332.28"/>
</g>
<!-- AccelerationSettings -->
<g id="node9" class="node">
<title>AccelerationSettings</title>
<g id="a_node9"><a xlink:href="http://tudat.tudelft.nl/tutorials/tudatFeatures/accelerationSetup/frameworkAcceleration.html#AccelerationSettings" xlink:title="AccelerationSettings" target="_top">
<polygon fill="lightgrey" stroke="lightgrey" points="232,-268 142,-268 142,-232 232,-232 232,-268"/>
<text text-anchor="middle" x="187" y="-248.1" font-family="Times" font-size="8.00">AccelerationSettings</text>
</a>
</g>
</g>
<!-- AccelerationSettings&#45;&gt;AccelerationModel -->
<g id="edge20" class="edge">
<title>AccelerationSettings&#45;&gt;AccelerationModel</title>
<path fill="none" stroke="black" d="M232.15,-250C262.88,-250 298,-250 298,-250 298,-250 298,-224.28 298,-224.28"/>
<polygon fill="black" stroke="black" points="301.5,-224.28 298,-214.28 294.5,-224.28 301.5,-224.28"/>
</g>
<!-- TerminationSettings -->
<g id="node10" class="node">
<title>TerminationSettings</title>
<g id="a_node10"><a xlink:href="http://tudat.tudelft.nl/tutorials/tudatFeatures/propagationSetup/propagatorSettingsTermination.html#PropagationTerminationSettings" xlink:title="TerminationSettings" target="_top">
<polygon fill="lightgrey" stroke="lightgrey" points="232,-106 142,-106 142,-70 232,-70 232,-106"/>
<text text-anchor="middle" x="187" y="-86.1" font-family="Times" font-size="8.00">TerminationSettings</text>
</a>
</g>
</g>
<!-- TerminationSettings&#45;&gt;PropagatorSettings -->
<g id="edge8" class="edge">
<title>TerminationSettings&#45;&gt;PropagatorSettings</title>
<path fill="none" stroke="black" d="M232.01,-88C260.12,-88 291,-88 291,-88 291,-88 291,-113.72 291,-113.72"/>
<polygon fill="black" stroke="black" points="287.5,-113.72 291,-123.72 294.5,-113.72 287.5,-113.72"/>
</g>
<!-- initialBodyStates -->
<g id="node11" class="node">
<title>initialBodyStates</title>
<polygon fill="lightgrey" stroke="lightgrey" points="232,-52 142,-52 142,-16 232,-16 232,-52"/>
<text text-anchor="middle" x="187" y="-32.1" font-family="Times" font-size="8.00">initialBodyStates</text>
</g>
<!-- initialBodyStates&#45;&gt;PropagatorSettings -->
<g id="edge6" class="edge">
<title>initialBodyStates&#45;&gt;PropagatorSettings</title>
<path fill="none" stroke="black" d="M232.11,-34C275.96,-34 336,-34 336,-34 336,-34 336,-113.68 336,-113.68"/>
<polygon fill="black" stroke="black" points="332.5,-113.68 336,-123.68 339.5,-113.68 332.5,-113.68"/>
</g>
<!-- bodiesToPropagate -->
<g id="node12" class="node">
<title>bodiesToPropagate</title>
<polygon fill="lightgrey" stroke="lightgrey" points="232,-160 142,-160 142,-124 232,-124 232,-160"/>
<text text-anchor="middle" x="187" y="-140.1" font-family="Times" font-size="8.00">bodiesToPropagate</text>
</g>
<!-- bodiesToPropagate&#45;&gt;PropagatorSettings -->
<g id="edge7" class="edge">
<title>bodiesToPropagate&#45;&gt;PropagatorSettings</title>
<path fill="none" stroke="black" d="M232.13,-131.2C232.13,-131.2 257.76,-131.2 257.76,-131.2"/>
<polygon fill="black" stroke="black" points="257.76,-134.7 267.76,-131.2 257.76,-127.7 257.76,-134.7"/>
</g>
<!-- bodiesToPropagate&#45;&gt;AccelerationModel -->
<g id="edge21" class="edge">
<title>bodiesToPropagate&#45;&gt;AccelerationModel</title>
<path fill="none" stroke="black" d="M232.19,-152.8C246.66,-152.8 259,-152.8 259,-152.8 259,-152.8 259,-196 259,-196 259,-196 259.89,-196 259.89,-196"/>
<polygon fill="black" stroke="black" points="257.92,-199.5 267.92,-196 257.92,-192.5 257.92,-199.5"/>
</g>
<!-- centralBodies -->
<g id="node13" class="node">
<title>centralBodies</title>
<polygon fill="lightgrey" stroke="lightgrey" points="232,-214 142,-214 142,-178 232,-178 232,-214"/>
<text text-anchor="middle" x="187" y="-194.1" font-family="Times" font-size="8.00">centralBodies</text>
</g>
<!-- centralBodies&#45;&gt;PropagatorSettings -->
<g id="edge9" class="edge">
<title>centralBodies&#45;&gt;PropagatorSettings</title>
<path fill="none" stroke="black" d="M232.08,-187C237.41,-187 241,-187 241,-187 241,-187 241,-138.4 241,-138.4 241,-138.4 257.81,-138.4 257.81,-138.4"/>
<polygon fill="black" stroke="black" points="257.81,-141.9 267.81,-138.4 257.81,-134.9 257.81,-141.9"/>
</g>
<!-- centralBodies&#45;&gt;AccelerationModel -->
<g id="edge22" class="edge">
<title>centralBodies&#45;&gt;AccelerationModel</title>
<path fill="none" stroke="black" d="M232.13,-205C232.13,-205 257.76,-205 257.76,-205"/>
<polygon fill="black" stroke="black" points="257.76,-208.5 267.76,-205 257.76,-201.5 257.76,-208.5"/>
</g>
<!-- dependentVariables -->
<g id="node14" class="node">
<title>dependentVariables</title>
<polygon fill="none" stroke="black" stroke-dasharray="1,5" points="106,-52 16,-52 16,-16 106,-16 106,-52"/>
<text text-anchor="middle" x="61" y="-32.1" font-family="Times" font-size="8.00">dependentVariables</text>
</g>
<!-- dependentVariables&#45;&gt;PropagatorSettings -->
<g id="edge10" class="edge">
<title>dependentVariables&#45;&gt;PropagatorSettings</title>
<path fill="none" stroke="black" d="M61,-52.16C61,-57.04 61,-61 61,-61 61,-61 313,-61 313,-61 313,-61 313,-113.62 313,-113.62"/>
<polygon fill="black" stroke="black" points="309.5,-113.62 313,-123.62 316.5,-113.62 309.5,-113.62"/>
</g>
<!-- dependentVariables&#45;&gt;initialBodyStates -->
<!-- simulationEndEpoch -->
<g id="node15" class="node">
<title>simulationEndEpoch</title>
<polygon fill="none" stroke="black" stroke-dasharray="1,5" points="106,-106 16,-106 16,-70 106,-70 106,-106"/>
<text text-anchor="middle" x="61" y="-86.1" font-family="Times" font-size="8.00">simulationEndEpoch</text>
</g>
<!-- simulationEndEpoch&#45;&gt;TerminationSettings -->
<g id="edge11" class="edge">
<title>simulationEndEpoch&#45;&gt;TerminationSettings</title>
<path fill="none" stroke="black" d="M106.13,-88C106.13,-88 131.76,-88 131.76,-88"/>
<polygon fill="black" stroke="black" points="131.76,-91.5 141.76,-88 131.76,-84.5 131.76,-91.5"/>
</g>
<!-- User&#45;defined \nenvironment settings -->
<g id="node16" class="node">
<title>User&#45;defined \nenvironment settings</title>
<polygon fill="none" stroke="black" stroke-dasharray="1,5" points="232,-322 142,-322 142,-286 232,-286 232,-322"/>
<text text-anchor="middle" x="187" y="-306.6" font-family="Times" font-size="8.00">User&#45;defined </text>
<text text-anchor="middle" x="187" y="-297.6" font-family="Times" font-size="8.00">environment settings</text>
</g>
<!-- User&#45;defined \nenvironment settings&#45;&gt;BodySettings -->
<g id="edge12" class="edge">
<title>User&#45;defined \nenvironment settings&#45;&gt;BodySettings</title>
<path fill="none" stroke="black" d="M187,-322.28C187,-322.28 187,-329.74 187,-329.74"/>
<polygon fill="black" stroke="black" points="183.5,-329.74 187,-339.74 190.5,-329.74 183.5,-329.74"/>
</g>
<!-- getDefaultBodySettings -->
<g id="node17" class="node">
<title>getDefaultBodySettings</title>
<polygon fill="lightgrey" stroke="lightgrey" points="106,-376 16,-376 16,-340 106,-340 106,-376"/>
<text text-anchor="middle" x="61" y="-356.1" font-family="Times" font-size="8.00">getDefaultBodySettings</text>
</g>
<!-- getDefaultBodySettings&#45;&gt;BodySettings -->
<g id="edge13" class="edge">
<title>getDefaultBodySettings&#45;&gt;BodySettings</title>
<path fill="none" stroke="black" d="M106.13,-358C106.13,-358 131.76,-358 131.76,-358"/>
<polygon fill="black" stroke="black" points="131.76,-361.5 141.76,-358 131.76,-354.5 131.76,-361.5"/>
</g>
<!-- bodyNames -->
<g id="node18" class="node">
<title>bodyNames</title>
<polygon fill="lightgrey" stroke="lightgrey" points="106,-322 16,-322 16,-286 106,-286 106,-322"/>
<text text-anchor="middle" x="61" y="-302.1" font-family="Times" font-size="8.00">bodyNames</text>
</g>
<!-- bodyNames&#45;&gt;getDefaultBodySettings -->
<g id="edge14" class="edge">
<title>bodyNames&#45;&gt;getDefaultBodySettings</title>
<path fill="none" stroke="black" d="M61,-322.28C61,-322.28 61,-329.74 61,-329.74"/>
<polygon fill="black" stroke="black" points="57.5,-329.74 61,-339.74 64.5,-329.74 57.5,-329.74"/>
</g>
<!-- User&#45;defined \nbodies&#45;&gt;NamedBodyMap -->
<g id="edge16" class="edge">
<title>User&#45;defined \nbodies&#45;&gt;NamedBodyMap</title>
<path fill="none" stroke="black" d="M328,-393.68C328,-393.68 328,-332.05 328,-332.05"/>
<polygon fill="black" stroke="black" points="331.5,-332.05 328,-322.05 324.5,-332.05 331.5,-332.05"/>
</g>
<!-- (initial/final) time -->
<g id="node20" class="node">
<title>(initial/final) time</title>
<polygon fill="none" stroke="black" stroke-dasharray="1,5" points="106,-430 16,-430 16,-394 106,-394 106,-430"/>
<text text-anchor="middle" x="61" y="-410.1" font-family="Times" font-size="8.00">(initial/final) time</text>
</g>
<!-- (initial/final) time&#45;&gt;getDefaultBodySettings -->
<g id="edge17" class="edge">
<title>(initial/final) time&#45;&gt;getDefaultBodySettings</title>
<path fill="none" stroke="black" d="M61,-393.72C61,-393.72 61,-386.26 61,-386.26"/>
<polygon fill="black" stroke="black" points="64.5,-386.26 61,-376.26 57.5,-386.26 64.5,-386.26"/>
</g>
<!-- (initial/final) time&#45;&gt;User&#45;defined \nbodies -->
<!-- simulationStartEpoch -->
<g id="node24" class="node">
<title>simulationStartEpoch</title>
<polygon fill="lightgrey" stroke="lightgrey" points="232,-544 142,-544 142,-508 232,-508 232,-544"/>
<text text-anchor="middle" x="187" y="-524.1" font-family="Times" font-size="8.00">simulationStartEpoch</text>
</g>
<!-- (initial/final) time&#45;&gt;simulationStartEpoch -->
<!-- accelerationType -->
<g id="node21" class="node">
<title>accelerationType</title>
<polygon fill="lightgrey" stroke="lightgrey" points="106,-262 16,-262 16,-226 106,-226 106,-262"/>
<text text-anchor="middle" x="61" y="-242.1" font-family="Times" font-size="8.00">accelerationType</text>
</g>
<!-- accelerationType&#45;&gt;AccelerationSettings -->
<g id="edge18" class="edge">
<title>accelerationType&#45;&gt;AccelerationSettings</title>
<path fill="none" stroke="black" d="M106.13,-252C106.13,-252 131.76,-252 131.76,-252"/>
<polygon fill="black" stroke="black" points="131.76,-255.5 141.76,-252 131.76,-248.5 131.76,-255.5"/>
</g>
<!-- Additional \ninformation -->
<g id="node22" class="node">
<title>Additional \ninformation</title>
<polygon fill="none" stroke="black" stroke-dasharray="1,5" points="106,-208 16,-208 16,-172 106,-172 106,-208"/>
<text text-anchor="middle" x="61" y="-192.6" font-family="Times" font-size="8.00">Additional </text>
<text text-anchor="middle" x="61" y="-183.6" font-family="Times" font-size="8.00">information</text>
</g>
<!-- Additional \ninformation&#45;&gt;AccelerationSettings -->
<g id="edge19" class="edge">
<title>Additional \ninformation&#45;&gt;AccelerationSettings</title>
<path fill="none" stroke="black" d="M106.12,-193C116.21,-193 124,-193 124,-193 124,-193 124,-242 124,-242 124,-242 131.88,-242 131.88,-242"/>
<polygon fill="black" stroke="black" points="131.88,-245.5 141.88,-242 131.88,-238.5 131.88,-245.5"/>
</g>
<!-- integratorType -->
<g id="node23" class="node">
<title>integratorType</title>
<polygon fill="lightgrey" stroke="lightgrey" points="232,-598 142,-598 142,-562 232,-562 232,-598"/>
<text text-anchor="middle" x="187" y="-578.1" font-family="Times" font-size="8.00">integratorType</text>
</g>
<!-- integratorType&#45;&gt;IntegratorSettings -->
<g id="edge24" class="edge">
<title>integratorType&#45;&gt;IntegratorSettings</title>
<path fill="none" stroke="black" d="M232,-580C273.27,-580 328,-580 328,-580 328,-580 328,-500.32 328,-500.32"/>
<polygon fill="black" stroke="black" points="331.5,-500.32 328,-490.32 324.5,-500.32 331.5,-500.32"/>
</g>
<!-- simulationStartEpoch&#45;&gt;IntegratorSettings -->
<g id="edge25" class="edge">
<title>simulationStartEpoch&#45;&gt;IntegratorSettings</title>
<path fill="none" stroke="black" d="M232.15,-526C262.88,-526 298,-526 298,-526 298,-526 298,-500.28 298,-500.28"/>
<polygon fill="black" stroke="black" points="301.5,-500.28 298,-490.28 294.5,-500.28 301.5,-500.28"/>
</g>
<!-- (initial) stepSize -->
<g id="node25" class="node">
<title>(initial) stepSize</title>
<polygon fill="lightgrey" stroke="lightgrey" points="232,-490 142,-490 142,-454 232,-454 232,-490"/>
<text text-anchor="middle" x="187" y="-470.1" font-family="Times" font-size="8.00">(initial) stepSize</text>
</g>
<!-- (initial) stepSize&#45;&gt;IntegratorSettings -->
<g id="edge26" class="edge">
<title>(initial) stepSize&#45;&gt;IntegratorSettings</title>
<path fill="none" stroke="black" d="M232.13,-472C232.13,-472 257.76,-472 257.76,-472"/>
<polygon fill="black" stroke="black" points="257.76,-475.5 267.76,-472 257.76,-468.5 257.76,-475.5"/>
</g>
</g>
</svg>
